<svg xmlns="http://www.w3.org/2000/svg" width="22.859" height="16" viewBox="0 0 22.859 16">
  <g id="Group_33015" data-name="Group 33015" transform="translate(18471.93 22297)">
    <g id="Grupo_29600" data-name="Grupo 29600" transform="translate(-18471.93 -22297)">
      <path id="Rectángulo_4053" data-name="Rectángulo 4053" d="M632.331,327.043H653.1c.576,0,1.043.327,1.043.73v14.541c0,.4-.467.73-1.043.73H632.331c-.576,0-1.043-.327-1.043-.73V327.773C631.288,327.37,631.755,327.043,632.331,327.043Z" transform="translate(-631.288 -327.043)" fill="#33b8ff"/>
      <path id="Trazado_9671" data-name="Trazado 9671" d="M631.288,347.543v6.629h22.858v-6.629" transform="translate(-631.288 -342.857)" fill="#fff"/>
      <g id="Group_29627" data-name="Group 29627" transform="translate(8.433 5.019)">
        <path id="Trazado_9672" data-name="Trazado 9672" d="M671.144,349.018a.045.045,0,0,1,.063-.008.039.039,0,0,1,.013.016.439.439,0,0,1,.016.124c.019.547.038,1.095.062,1.642a1.284,1.284,0,0,0,.059-.349,1.034,1.034,0,0,1,.108-.4,1.223,1.223,0,0,0,.124-.34,1.242,1.242,0,0,0,0-.24.465.465,0,0,1,.1-.314.159.159,0,0,1,.109-.063.034.034,0,0,1,.038.032.028.028,0,0,1,0,.01c-.02.037-.053.065-.073.1a.262.262,0,0,0-.032.161,1.848,1.848,0,0,1,.022.309.847.847,0,0,1-.092.353.776.776,0,0,0-.076.208c-.034.183-.02.373-.049.552.234-.509.472-1.02.706-1.53.014-.026.037-.062.076-.053s.032.059.021.088c-.2.539-.4,1.077-.6,1.615.135-.144.183-.344.308-.5.084-.107.2-.184.289-.287a.738.738,0,0,0,.139-.211.986.986,0,0,1,.124-.258.374.374,0,0,1,.221-.147c.031,0,.086.012.07.053s-.082.045-.117.077a.467.467,0,0,0-.117.238.956.956,0,0,1-.189.373c-.063.081-.153.137-.216.22-.124.163-.18.373-.293.54q.6-.555,1.205-1.108c.03-.026.053-.059.091-.068a.046.046,0,0,1,.052.039.035.035,0,0,1,0,.012.306.306,0,0,1-.076.1c-.372.4-.755.807-1.131,1.214a2.911,2.911,0,0,0,.395-.287.98.98,0,0,1,.28-.133,1.088,1.088,0,0,0,.353-.182,1.771,1.771,0,0,1,.236-.218.388.388,0,0,1,.264-.061c.027,0,.066.025.063.061s-.05.026-.076.031a.261.261,0,0,0-.184.082c-.066.074-.124.155-.193.225a.887.887,0,0,1-.334.209.761.761,0,0,0-.21.1c-.155.1-.277.249-.428.355l1.591-.587c.027-.01.078-.014.086.025s-.021.054-.046.068c-.524.24-1.052.478-1.578.722a1.7,1.7,0,0,0,.405-.1,1.057,1.057,0,0,1,.372-.035,1.015,1.015,0,0,0,.408-.036,2.567,2.567,0,0,1,.276-.1.424.424,0,0,1,.24.015.146.146,0,0,1,.086.064.037.037,0,0,1-.013.051l-.009,0c-.047,0-.088-.028-.134-.031a.281.281,0,0,0-.157.036,1.984,1.984,0,0,1-.3.147.89.89,0,0,1-.349.042.741.741,0,0,0-.241.016c-.175.041-.34.124-.52.164.264,0,.524.017.785.026l.926.034c.031,0,.076.011.076.05s-.037.05-.064.052c-.576.023-1.158.039-1.739.065a1.419,1.419,0,0,0,.372.061,1.044,1.044,0,0,1,.372.107,1.124,1.124,0,0,0,.373.124,2.742,2.742,0,0,1,.346.015.427.427,0,0,1,.2.105.141.141,0,0,1,.046.093.036.036,0,0,1-.034.038h-.008a.848.848,0,0,0-.124-.086.478.478,0,0,0-.249-.008,1.029,1.029,0,0,1-.432-.03c-.1-.03-.176-.086-.273-.113a5.652,5.652,0,0,0-.621-.062c.5.224,1,.456,1.5.682.032.016.078.029.093.066s-.04.067-.076.052c-.548-.2-1.091-.4-1.64-.6a1.854,1.854,0,0,0,.372.221,1.022,1.022,0,0,1,.275.229,1.2,1.2,0,0,0,.268.237,1.34,1.34,0,0,0,.221.1.461.461,0,0,1,.249.22.145.145,0,0,1,.012.124.033.033,0,0,1-.043.02.031.031,0,0,1-.016-.013.577.577,0,0,0-.082-.124.515.515,0,0,0-.223-.1.97.97,0,0,1-.379-.186c-.081-.063-.135-.153-.219-.212-.165-.124-.373-.183-.551-.3.389.41.771.827,1.158,1.242.025.025.051.065.02.094s-.063,0-.085-.016q-.551-.506-1.1-1.012c-.059-.052-.114-.107-.176-.158a2.385,2.385,0,0,0,.274.373.97.97,0,0,1,.148.293,1.111,1.111,0,0,0,.166.331,1.282,1.282,0,0,0,.16.163.466.466,0,0,1,.144.291.16.16,0,0,1-.032.124.035.035,0,0,1-.049,0,.031.031,0,0,1-.009-.014.494.494,0,0,0-.026-.145.529.529,0,0,0-.169-.175,1,1,0,0,1-.276-.312c-.053-.093-.073-.2-.124-.292-.1-.176-.268-.3-.386-.468.2.528.392,1.053.589,1.58.011.031.015.08-.025.089s-.058-.026-.072-.054q-.328-.706-.654-1.418c-.024-.046-.042-.1-.066-.14a1.546,1.546,0,0,0,.1.4,1.052,1.052,0,0,1,.035.359,1.164,1.164,0,0,0,.02.373,1.5,1.5,0,0,0,.091.224.46.46,0,0,1,.018.335.141.141,0,0,1-.078.091c-.024.006-.051-.016-.044-.038a.566.566,0,0,0,.031-.145.479.479,0,0,0-.089-.222.992.992,0,0,1-.134-.4c-.012-.1.011-.207,0-.312-.025-.208-.139-.395-.179-.6-.015.563-.041,1.118-.061,1.687,0,.035-.009.086-.052.087s-.051-.038-.052-.068c-.024-.573-.043-1.146-.069-1.719a1.438,1.438,0,0,0-.058.352,1.009,1.009,0,0,1-.107.4,1.078,1.078,0,0,0-.124.365,1.843,1.843,0,0,1-.022.373.346.346,0,0,1-.158.214c-.03.017-.081,0-.072-.035a1.118,1.118,0,0,0,.083-.124.373.373,0,0,0,.014-.2,1.1,1.1,0,0,1,.02-.456c.028-.109.1-.2.124-.312.051-.2.026-.4.058-.6-.23.51-.467,1.017-.7,1.526-.014.028-.037.071-.077.062s-.036-.059-.025-.087c.2-.54.405-1.078.6-1.615a4.532,4.532,0,0,0-.28.451,1.179,1.179,0,0,1-.191.205.945.945,0,0,0-.249.309,1.172,1.172,0,0,1-.132.276.372.372,0,0,1-.212.152c-.031.009-.086,0-.086-.041s.047-.037.069-.052a.264.264,0,0,0,.135-.164,1.607,1.607,0,0,1,.158-.4,1.218,1.218,0,0,1,.214-.232,3.129,3.129,0,0,0,.36-.609c-.4.373-.8.745-1.205,1.111a.269.269,0,0,1-.091.067.044.044,0,0,1-.053-.035.052.052,0,0,1,0-.016.223.223,0,0,1,.062-.087c.326-.347.651-.7.978-1.046.056-.061.11-.115.163-.179a3.823,3.823,0,0,0-.414.3,1,1,0,0,1-.269.124.967.967,0,0,0-.353.19,2.008,2.008,0,0,1-.2.193.446.446,0,0,1-.236.078.148.148,0,0,1-.1-.032c-.018-.017-.011-.055.014-.057a.59.59,0,0,0,.149-.027.427.427,0,0,0,.148-.134,1.4,1.4,0,0,1,.258-.258,1.041,1.041,0,0,1,.286-.132,2.9,2.9,0,0,0,.563-.425c-.5.181-1.006.373-1.51.555a.429.429,0,0,1-.124.036.044.044,0,0,1-.044-.043.05.05,0,0,1,0-.013.1.1,0,0,1,.055-.047c.523-.237,1.044-.477,1.569-.714a3.142,3.142,0,0,0-.5.116c-.206.046-.414-.021-.621.029-.117.024-.217.094-.332.124a.406.406,0,0,1-.3-.032c-.026-.02-.061-.056-.035-.089s.052,0,.073,0a.267.267,0,0,0,.184,0c.073-.029.141-.076.216-.108a.894.894,0,0,1,.353-.1c.089-.008.183.013.274,0,.216-.024.405-.137.621-.178-.559-.016-1.118-.042-1.673-.06a.194.194,0,0,1-.094-.019.042.042,0,0,1-.011-.059.052.052,0,0,1,.011-.01.1.1,0,0,1,.056-.016c.574-.021,1.149-.041,1.723-.064a5.081,5.081,0,0,0-.544-.09c-.153-.036-.28-.124-.429-.171a.758.758,0,0,0-.249-.037.838.838,0,0,1-.268-.014.361.361,0,0,1-.222-.15c-.019-.026-.012-.09.032-.082s.066.056.1.077a.269.269,0,0,0,.16.028,2.3,2.3,0,0,1,.323-.02.825.825,0,0,1,.343.089.814.814,0,0,0,.224.077c.179.031.365.015.544.045-.511-.231-1.024-.466-1.533-.7a.115.115,0,0,1-.064-.053.043.043,0,0,1,.032-.052h.01a.4.4,0,0,1,.124.036c.518.189,1.03.383,1.546.568-.134-.124-.325-.175-.468-.288a1.133,1.133,0,0,1-.192-.18.971.971,0,0,0-.292-.248,1.451,1.451,0,0,1-.3-.143.374.374,0,0,1-.149-.22c0-.032.015-.086.055-.069s.046.083.076.117a.476.476,0,0,0,.242.117.981.981,0,0,1,.373.185c.079.064.138.152.219.214.164.124.373.183.549.3-.385-.407-.761-.817-1.147-1.226a.123.123,0,0,1-.045-.077.045.045,0,0,1,.049-.04l.014,0a.449.449,0,0,1,.095.076c.406.373.807.745,1.215,1.118a3.276,3.276,0,0,0-.3-.411,1.139,1.139,0,0,1-.124-.27.98.98,0,0,0-.191-.35,1.768,1.768,0,0,1-.2-.216.415.415,0,0,1-.069-.257c0-.032.025-.08.067-.076s.025.049.03.073a.264.264,0,0,0,.091.192,1.858,1.858,0,0,1,.3.276.99.99,0,0,1,.152.3c.083.232.3.373.437.574-.2-.522-.392-1.047-.588-1.57a.126.126,0,0,1-.01-.068.043.043,0,0,1,.052-.029l.012.006a.2.2,0,0,1,.058.1l.7,1.506a3.38,3.38,0,0,0-.124-.5c-.038-.2.021-.4-.025-.591a3.226,3.226,0,0,0-.124-.322.407.407,0,0,1,.034-.319c.02-.031.079-.059.093-.01s-.027.088-.03.132a.25.25,0,0,0,.035.154,1.732,1.732,0,0,1,.148.31.82.82,0,0,1,.041.335.733.733,0,0,0,.022.266c.042.166.124.322.156.5.015-.56.041-1.118.063-1.674a.154.154,0,0,1,.015-.082Z" transform="translate(-668.183 -349)" fill="#f4d631"/>
        <path id="Trazado_9673" data-name="Trazado 9673" d="M681,349.17c0-.02,0-.054.032-.045a.071.071,0,0,1,.015.045q.032.857.066,1.713h-.061q-.011-.386-.026-.773c-.015.258-.021.515-.029.775h-.061c.02-.571.044-1.143.064-1.713Z" transform="translate(-678.023 -349.095)" fill="#f4d631"/>
        <path id="Trazado_9674" data-name="Trazado 9674" d="M678.71,349.409a.07.07,0,0,1,.047-.032.646.646,0,0,0-.033.169.514.514,0,0,0,.083.211.98.98,0,0,1,.136.373,1.738,1.738,0,0,1,0,.312c.02.225.146.421.185.64l-.063.01c-.033-.195-.139-.373-.175-.564a1.328,1.328,0,0,1-.015-.195.55.55,0,0,0,0,.267,2.989,2.989,0,0,1,.124.508l-.057.011c-.012-.182-.105-.346-.124-.528a1.351,1.351,0,0,1,0-.278.89.89,0,0,0-.05-.4,1.152,1.152,0,0,1-.1-.258.362.362,0,0,1,.04-.248Z" transform="translate(-676.267 -349.291)" fill="#f4d631"/>
        <path id="Trazado_9675" data-name="Trazado 9675" d="M682.4,349.475a.1.1,0,0,1,.053-.01.365.365,0,0,0-.1.395.918.918,0,0,1-.027.391c-.025.1-.083.181-.113.28-.063.211-.027.436-.073.651a.46.46,0,0,0-.059-.016c.04-.187.016-.379.048-.567a.846.846,0,0,1,.069-.2.457.457,0,0,0-.1.248,2.8,2.8,0,0,1-.081.5.144.144,0,0,1-.057,0,2.081,2.081,0,0,0,.063-.426,1,1,0,0,1,.1-.323,1,1,0,0,0,.124-.383,2.326,2.326,0,0,1,.018-.336.333.333,0,0,1,.133-.206Z" transform="translate(-678.815 -349.359)" fill="#f4d631"/>
        <path id="Trazado_9676" data-name="Trazado 9676" d="M676.3,350.093c.029-.013.038.019.049.037l.717,1.553-.052.017c-.1-.225-.21-.45-.311-.677a.707.707,0,0,0,.05.153c.07.184.134.364.207.545l-.055.026-.6-1.6a.075.075,0,0,1-.006-.053Z" transform="translate(-674.446 -349.841)" fill="#f4d631"/>
        <path id="Trazado_9677" data-name="Trazado 9677" d="M683.707,350.1c.031-.019.031.026.026.045-.2.538-.4,1.073-.6,1.615l-.053-.023c.064-.181.135-.363.2-.543.018-.052.041-.1.055-.16-.106.226-.209.453-.314.678l-.053-.02.641-1.389a1.87,1.87,0,0,1,.1-.2Z" transform="translate(-679.589 -349.844)" fill="#f4d631"/>
        <path id="Trazado_9678" data-name="Trazado 9678" d="M674.209,351.233c0-.018.016-.03.029-.042a.539.539,0,0,0,.041.182.533.533,0,0,0,.135.139,1.026,1.026,0,0,1,.3.318c.05.086.067.185.115.275.1.2.3.333.414.522a.448.448,0,0,1-.052.03c-.1-.163-.266-.282-.372-.442a.815.815,0,0,1-.093-.194.536.536,0,0,0,.141.3,2.379,2.379,0,0,1,.269.373l-.049.036c-.077-.167-.23-.281-.32-.44a1.314,1.314,0,0,1-.1-.232.948.948,0,0,0-.2-.363,1.63,1.63,0,0,1-.2-.209.347.347,0,0,1-.054-.248Z" transform="translate(-672.827 -350.69)" fill="#f4d631"/>
        <path id="Trazado_9679" data-name="Trazado 9679" d="M684.761,351.6a.372.372,0,0,1,.2-.144.113.113,0,0,1,.061.006,1.259,1.259,0,0,0-.134.091.551.551,0,0,0-.106.232.993.993,0,0,1-.174.361c-.067.081-.158.139-.22.224-.136.168-.191.388-.314.567-.018-.013-.032-.026-.05-.037.1-.144.15-.313.238-.465a.7.7,0,0,1,.169-.2.5.5,0,0,0-.215.226,2.106,2.106,0,0,1-.249.4c-.015-.009-.031-.017-.047-.029.13-.146.18-.341.306-.5a1.83,1.83,0,0,1,.2-.2.9.9,0,0,0,.215-.285,1.387,1.387,0,0,1,.124-.262Z" transform="translate(-680.321 -350.89)" fill="#f4d631"/>
        <path id="Trazado_9680" data-name="Trazado 9680" d="M672.1,352.907c-.007-.038.037-.025.052,0q.632.584,1.265,1.165l-.04.042c-.189-.17-.373-.34-.555-.509.168.186.341.364.511.55l-.04.041-1.118-1.2a.629.629,0,0,1-.071-.085Z" transform="translate(-671.207 -351.996)" fill="#f4d631"/>
        <path id="Trazado_9681" data-name="Trazado 9681" d="M686.019,352.9a.051.051,0,0,1,.047-.019c.011.024-.01.042-.022.059l-1.169,1.25c-.011-.014-.026-.027-.038-.042.172-.184.345-.363.511-.55-.187.169-.366.34-.553.51a.382.382,0,0,0-.044-.039l1.268-1.168Z" transform="translate(-680.964 -351.996)" fill="#f4d631"/>
        <path id="Trazado_9682" data-name="Trazado 9682" d="M670.647,354.65a1.434,1.434,0,0,0,.1.138.515.515,0,0,0,.23.1,1.026,1.026,0,0,1,.363.175c.082.067.143.157.226.219.171.137.389.19.568.311l-.034.052a5.119,5.119,0,0,0-.461-.231.779.779,0,0,1-.21-.176.555.555,0,0,0,.26.232,1.887,1.887,0,0,1,.372.23l-.029.048c-.143-.124-.334-.178-.48-.293a1.392,1.392,0,0,1-.2-.2.92.92,0,0,0-.3-.229,1.277,1.277,0,0,1-.265-.124.367.367,0,0,1-.146-.2.138.138,0,0,1,0-.06Z" transform="translate(-670.075 -353.356)" fill="#f4d631"/>
        <path id="Trazado_9683" data-name="Trazado 9683" d="M686.683,355.037a.337.337,0,0,1,.249-.057.074.074,0,0,1,.041.03.584.584,0,0,0-.175.037.406.406,0,0,0-.124.106,1.705,1.705,0,0,1-.224.248.894.894,0,0,1-.285.15.97.97,0,0,0-.34.209,2.535,2.535,0,0,1-.3.248l-.032-.052c.144-.094.256-.226.39-.333a.859.859,0,0,1,.249-.132.509.509,0,0,0-.249.1,3.073,3.073,0,0,1-.428.309.372.372,0,0,0-.038-.045c.165-.079.281-.225.436-.317a1.089,1.089,0,0,1,.24-.1,1.039,1.039,0,0,0,.373-.2,1.231,1.231,0,0,1,.214-.2Z" transform="translate(-681.478 -353.61)" fill="#f4d631"/>
        <path id="Trazado_9684" data-name="Trazado 9684" d="M677.235,356.882a1.184,1.184,0,0,1,1.221.863,1.17,1.17,0,0,1-.1.87,1.187,1.187,0,0,1-.57.523,1.187,1.187,0,0,1-1.515-.523,1.171,1.171,0,0,1,.369-1.526,1.159,1.159,0,0,1,.595-.206Z" transform="translate(-674.314 -355.078)" fill="#f4d631"/>
        <path id="Trazado_9685" data-name="Trazado 9685" d="M669.3,357.055a.158.158,0,0,1,.095.02l1.578.58a.344.344,0,0,0-.026.052c-.213-.082-.426-.159-.639-.237a.683.683,0,0,0-.067-.02l.682.311-.02.053-1.561-.713c-.021-.011-.048-.021-.043-.047Z" transform="translate(-669.039 -355.213)" fill="#f4d631"/>
        <path id="Trazado_9686" data-name="Trazado 9686" d="M687.627,357.057a.083.083,0,0,1,.058-.006c.008.031-.027.04-.047.051-.521.236-1.037.474-1.555.71-.006-.017-.012-.036-.019-.053.227-.1.455-.209.68-.308a.928.928,0,0,0-.153.049c-.181.069-.373.135-.549.206-.008-.019-.019-.036-.026-.052l1.615-.594Z" transform="translate(-681.941 -355.209)" fill="#f4d631"/>
        <path id="Trazado_9687" data-name="Trazado 9687" d="M668.662,359.241a.587.587,0,0,0,.149.1.565.565,0,0,0,.24,0,1,1,0,0,1,.409.026c.1.027.181.086.281.113.212.062.44.026.653.073a.206.206,0,0,1-.018.061c-.189-.042-.386-.014-.575-.051a1.044,1.044,0,0,1-.192-.067.489.489,0,0,0,.268.1,2.45,2.45,0,0,1,.486.076.447.447,0,0,1,0,.056c-.186-.062-.389-.035-.574-.094-.136-.036-.256-.124-.389-.158a.829.829,0,0,0-.334-.038.484.484,0,0,1-.337-.087.136.136,0,0,1-.062-.112Z" transform="translate(-668.553 -356.899)" fill="#f4d631"/>
        <path id="Trazado_9688" data-name="Trazado 9688" d="M687.588,359.5a1.516,1.516,0,0,1,.278-.1.364.364,0,0,1,.249.038.09.09,0,0,1,.032.047.554.554,0,0,0-.183-.032.512.512,0,0,0-.187.075,1.12,1.12,0,0,1-.34.137,1.169,1.169,0,0,1-.3.009,3.676,3.676,0,0,0-.7.186.143.143,0,0,0-.01-.063c.2-.034.373-.14.567-.175a1.829,1.829,0,0,1,.2-.012.563.563,0,0,0-.263,0,2.828,2.828,0,0,1-.513.124.248.248,0,0,0-.012-.055,2.132,2.132,0,0,0,.415-.1,1.042,1.042,0,0,1,.351-.03,1.026,1.026,0,0,0,.43-.042Z" transform="translate(-682.231 -357.017)" fill="#f4d631"/>
        <path id="Trazado_9689" data-name="Trazado 9689" d="M668.411,361.718c.558-.021,1.118-.042,1.674-.061v.059c-.249.006-.511.013-.767.026.256.013.513.022.767.03v.059c-.574-.02-1.15-.041-1.723-.065-.02,0-.055,0-.046-.032a.236.236,0,0,1,.1-.015Z" transform="translate(-668.284 -358.764)" fill="#f4d631"/>
        <path id="Trazado_9690" data-name="Trazado 9690" d="M686.557,361.658c.551.018,1.108.04,1.662.061a.314.314,0,0,1,.089.008c.018,0,.023.012.018.026a.068.068,0,0,1-.046.014c-.571.022-1.149.045-1.723.064v-.059c.249-.008.5-.016.755-.03-.249-.012-.506-.02-.755-.026v-.059Z" transform="translate(-682.356 -358.765)" fill="#f4d631"/>
        <path id="Trazado_9691" data-name="Trazado 9691" d="M669.523,362.8a3.846,3.846,0,0,0,.706-.185l.007.063c-.205.035-.383.148-.587.179-.057.01-.115,0-.17.011a.566.566,0,0,0,.27-.006,2.564,2.564,0,0,1,.5-.124.409.409,0,0,0,.014.055c-.184.01-.351.1-.534.124a1.317,1.317,0,0,1-.268,0,.9.9,0,0,0-.408.05,1.046,1.046,0,0,1-.278.1.341.341,0,0,1-.249-.045.082.082,0,0,1-.025-.041.572.572,0,0,0,.184.031.485.485,0,0,0,.19-.077,1.136,1.136,0,0,1,.338-.133,1.187,1.187,0,0,1,.3-.01Z" transform="translate(-668.426 -359.507)" fill="#f4d631"/>
        <path id="Trazado_9692" data-name="Trazado 9692" d="M686.4,362.732a.12.12,0,0,1,.01-.059,2.81,2.81,0,0,0,.474.071,1.076,1.076,0,0,1,.28.1,1.055,1.055,0,0,0,.394.124,1.676,1.676,0,0,1,.328.015.343.343,0,0,1,.209.124.094.094,0,0,1,.011.055.771.771,0,0,0-.139-.094.333.333,0,0,0-.163-.015,1.722,1.722,0,0,1-.353.014.81.81,0,0,1-.294-.091.9.9,0,0,0-.328-.087,3.577,3.577,0,0,1-.456-.037.229.229,0,0,1,.018-.062c.173.039.352.022.523.045a.819.819,0,0,1,.249.073.472.472,0,0,0-.249-.1,2.784,2.784,0,0,1-.5-.078Z" transform="translate(-682.217 -359.548)" fill="#f4d631"/>
        <path id="Trazado_9693" data-name="Trazado 9693" d="M670.73,363.755c.055-.025.11-.048.164-.076a.383.383,0,0,1,.025.052c-.228.1-.456.209-.682.309a.9.9,0,0,0,.16-.052c.182-.066.364-.138.547-.2.007.018.014.035.023.052l-1.578.58a.158.158,0,0,1-.095.02c-.006-.03.023-.037.043-.047l1.394-.636Z" transform="translate(-669.039 -360.324)" fill="#f4d631"/>
        <path id="Trazado_9694" data-name="Trazado 9694" d="M686.061,363.731a.258.258,0,0,1,.024-.052c.522.248,1.05.477,1.574.719.012.009.035.022.022.04s-.04,0-.054,0l-1.615-.593c.01-.016.012-.061.04-.047.209.078.42.154.628.234a.406.406,0,0,0,.058.016c-.226-.1-.455-.209-.681-.312Z" transform="translate(-681.937 -360.324)" fill="#f4d631"/>
        <path id="Trazado_9695" data-name="Trazado 9695" d="M671.346,364.984c.19-.1.323-.287.5-.4.012.019.021.036.031.053-.164.1-.285.263-.445.373a.772.772,0,0,1-.194.089.5.5,0,0,0,.277-.117,2.769,2.769,0,0,1,.4-.289c.012.016.026.03.037.046-.165.08-.285.228-.443.321a1.168,1.168,0,0,1-.232.1.942.942,0,0,0-.365.2,1.412,1.412,0,0,1-.212.194.344.344,0,0,1-.249.057.092.092,0,0,1-.04-.03.486.486,0,0,0,.181-.042.518.518,0,0,0,.14-.134,1.04,1.04,0,0,1,.319-.29c.094-.055.2-.072.3-.124Z" transform="translate(-669.902 -361.02)" fill="#f4d631"/>
        <path id="Trazado_9696" data-name="Trazado 9696" d="M685.5,364.669a.467.467,0,0,0,.027-.05c.15.124.349.18.5.308.094.075.161.175.249.248a.779.779,0,0,0,.237.16,1.088,1.088,0,0,1,.255.118.338.338,0,0,1,.143.194.1.1,0,0,1-.006.061,1.205,1.205,0,0,0-.091-.135.386.386,0,0,0-.169-.085,1.388,1.388,0,0,1-.335-.13.81.81,0,0,1-.213-.183.807.807,0,0,0-.228-.18c-.144-.081-.307-.137-.446-.229.011-.017.024-.035.033-.052.148.1.317.15.472.237a.772.772,0,0,1,.2.17.486.486,0,0,0-.214-.207,2.558,2.558,0,0,1-.416-.248Z" transform="translate(-681.478 -361.049)" fill="#f4d631"/>
        <path id="Trazado_9697" data-name="Trazado 9697" d="M672.125,366.714c.393-.419.781-.838,1.174-1.257l.036.042c-.124.14-.256.28-.387.418a.9.9,0,0,0-.089.1c.033-.025.067-.06.1-.089.141-.124.281-.258.42-.388l.043.037c-.4.373-.8.745-1.208,1.118a.6.6,0,0,1-.083.071c-.04.01-.022-.037,0-.051Z" transform="translate(-671.209 -361.695)" fill="#f4d631"/>
        <path id="Trazado_9698" data-name="Trazado 9698" d="M684.835,365.493l.041-.042q.583.627,1.166,1.251c.012.017.032.035.025.056s-.04-.01-.057-.021l-1.261-1.163a.362.362,0,0,0,.044-.039l.434.4a.719.719,0,0,0,.091.078c-.155-.179-.321-.344-.482-.52Z" transform="translate(-680.962 -361.691)" fill="#f4d631"/>
        <path id="Trazado_9699" data-name="Trazado 9699" d="M674.52,366.693c.133-.168.186-.386.311-.564a.357.357,0,0,1,.051.037c-.1.143-.152.313-.238.464a.767.767,0,0,1-.169.2.471.471,0,0,0,.191-.19,2.288,2.288,0,0,1,.275-.437l.046.029c-.13.149-.183.347-.313.5-.076.1-.173.164-.249.248a.719.719,0,0,0-.161.233,1.328,1.328,0,0,1-.124.255.345.345,0,0,1-.2.143.108.108,0,0,1-.059-.006c.04-.036.1-.051.134-.092a.5.5,0,0,0,.106-.232.961.961,0,0,1,.181-.373c.063-.081.154-.135.216-.22Z" transform="translate(-672.579 -362.214)" fill="#f4d631"/>
        <path id="Trazado_9700" data-name="Trazado 9700" d="M683.96,366.188l.044-.036a2.263,2.263,0,0,0,.259.348.972.972,0,0,1,.153.287,1.264,1.264,0,0,0,.166.349,1.714,1.714,0,0,0,.163.16.462.462,0,0,1,.141.264c0,.042.007.1-.035.124a.457.457,0,0,0-.045-.19.686.686,0,0,0-.166-.157,1.006,1.006,0,0,1-.263-.3c-.051-.089-.069-.187-.124-.278-.1-.194-.292-.327-.409-.51a.413.413,0,0,1,.052-.031c.1.145.23.257.338.392a.738.738,0,0,1,.124.248.743.743,0,0,0-.217-.4,1.32,1.32,0,0,1-.189-.271Z" transform="translate(-680.264 -362.231)" fill="#f4d631"/>
        <path id="Trazado_9701" data-name="Trazado 9701" d="M676.678,367.342c.081-.215.155-.434.249-.646l.047.028c-.081.21-.155.421-.236.632a.275.275,0,0,0-.018.066c.1-.227.207-.451.311-.676a.4.4,0,0,1,.052.018q-.357.777-.717,1.553c-.008.021-.02.048-.048.038a.089.089,0,0,1,.006-.059q.175-.478.359-.956Z" transform="translate(-674.456 -362.651)" fill="#f4d631"/>
        <path id="Trazado_9702" data-name="Trazado 9702" d="M683.091,366.733a.487.487,0,0,0,.052-.021q.29.781.584,1.563c.01.031.03.063.021.093-.028.01-.038-.017-.05-.036l-.662-1.435a.7.7,0,0,1-.052-.124.375.375,0,0,1,.05-.019c.1.225.211.451.312.68a1.2,1.2,0,0,0-.053-.163c-.07-.181-.138-.363-.2-.543Z" transform="translate(-679.601 -362.663)" fill="#f4d631"/>
        <path id="Trazado_9703" data-name="Trazado 9703" d="M678.822,367.065l.062.015a4.625,4.625,0,0,0-.041.518.9.9,0,0,1-.076.248.477.477,0,0,0,.1-.231,2.766,2.766,0,0,1,.081-.519l.057.006c-.061.186-.036.388-.095.571-.038.135-.124.248-.159.387a.793.793,0,0,0-.04.331.47.47,0,0,1-.083.328c-.03.035-.067.074-.114.068a.761.761,0,0,0,.092-.137.366.366,0,0,0,.016-.153,1.672,1.672,0,0,1-.016-.345.848.848,0,0,1,.089-.3.846.846,0,0,0,.089-.312c.016-.158.007-.317.038-.472Z" transform="translate(-676.152 -362.936)" fill="#f4d631"/>
        <path id="Trazado_9704" data-name="Trazado 9704" d="M682.031,367.1a.193.193,0,0,1,.053-.018,2.07,2.07,0,0,0,.1.4,1.019,1.019,0,0,1,.033.36,1.05,1.05,0,0,0,.036.406,1.516,1.516,0,0,1,.112.309.328.328,0,0,1-.045.241c-.01.015-.026.019-.044.026a.4.4,0,0,0,.024-.231,2.133,2.133,0,0,0-.124-.248.879.879,0,0,1-.095-.319c-.01-.1.012-.194,0-.289-.024-.217-.139-.411-.183-.621l.064-.01c.032.2.139.373.174.563q.01.1.011.2a.533.533,0,0,0,0-.276,2.74,2.74,0,0,1-.124-.5Z" transform="translate(-678.765 -362.948)" fill="#f4d631"/>
        <path id="Trazado_9705" data-name="Trazado 9705" d="M680.924,367.254a.386.386,0,0,0,.061,0c.007.26.015.518.029.774.011-.256.02-.514.026-.771h.061q-.032.831-.064,1.664a.207.207,0,0,1-.014.094H681a.194.194,0,0,1-.016-.094c-.02-.555-.042-1.11-.062-1.664Z" transform="translate(-678.01 -363.082)" fill="#f4d631"/>
        <path id="Trazado_9706" data-name="Trazado 9706" d="M678.474,359.974a.921.921,0,0,1-.249.092,1.525,1.525,0,0,1-.249-.05A.355.355,0,0,0,678.474,359.974Zm-.161.04a.279.279,0,0,0,.108-.052.3.3,0,0,0-.088-.087.269.269,0,0,0-.205-.026.317.317,0,0,0-.173.112.836.836,0,0,0,.231.069.462.462,0,0,0,.126-.016Zm-.03-.137a.634.634,0,0,1,.1.083,1,1,0,0,1-.115.056.3.3,0,0,0,.014-.143Zm-.264.066a.26.26,0,0,1,.107-.075h0c0,.029-.008.124.012.147a.618.618,0,0,1-.121-.07Zm.456-.01-.174-.263a.288.288,0,0,1,.263.227.545.545,0,0,1-.1.391l.049.01c.092-.143.124-.48.021-.57a.461.461,0,0,0-.272-.115.468.468,0,0,0-.205.026.789.789,0,0,0-.224.179.824.824,0,0,1,.463-.147Zm.333,1.009h0c-.01,0-.214.009-.235.015a.993.993,0,0,0,.235.026h0a.993.993,0,0,0,.235-.026C678.847,360.693,678.642,360.678,678.633,360.678Zm-.117-.308c-.026.01-.124.117-.124-.064,0,0-.049.078-.02.124a.049.049,0,0,0,.05.03.8.8,0,0,1,.112-.016.8.8,0,0,0,.1.015h0a.912.912,0,0,0,.1-.015.784.784,0,0,1,.11.016.05.05,0,0,0,.051-.03c.029-.05-.02-.124-.02-.124,0,.181-.1.075-.124.064a.151.151,0,0,1-.115.061h0a.143.143,0,0,1-.117-.061Zm-.216-.545a.425.425,0,0,1,.083.052.778.778,0,0,0,.086.056l.038-.012a1.118,1.118,0,0,1-.11-.062.377.377,0,0,0-.178-.078.63.63,0,0,0-.221.049.562.562,0,0,0-.124.117.873.873,0,0,1,.277-.133.33.33,0,0,1,.149.013Zm.5.464a.557.557,0,0,1-.1-.391.29.29,0,0,1,.263-.227.82.82,0,0,1,.462.148.73.73,0,0,0-.224-.179.454.454,0,0,0-.2-.026.465.465,0,0,0-.274.115c-.1.092-.073.429.023.57Zm.343-.44a.28.28,0,0,0-.21.026.392.392,0,0,0-.087.087.287.287,0,0,0,.107.052.478.478,0,0,0,.124.016.854.854,0,0,0,.234-.069.33.33,0,0,0-.17-.113Zm-.258.112a.619.619,0,0,1,.1-.083.319.319,0,0,0,.015.139.912.912,0,0,1-.118-.056Zm.249.055c.022-.017.018-.124.016-.146h0a.248.248,0,0,1,.1.075.556.556,0,0,1-.128.072Zm-.372.548c-.064-.01-.041.01-.124.01s-.061-.02-.124-.01-.161.124-.161.124.141-.08.153-.081.124.01.133.011h0s.124-.014.132-.011.154.081.154.081-.1-.114-.164-.124Zm.287-.5a.869.869,0,0,1-.249-.092.355.355,0,0,0,.5.045l0,0a1.572,1.572,0,0,1-.257.048Zm-.14.643c-.066,0-.1.037-.149.069-.081.053-.118.041-.124.04h0s-.038.014-.124-.04c-.05-.031-.081-.071-.148-.069.072.039.118.091.155.111a.322.322,0,0,0,.1.032.753.753,0,0,0-.108.052.2.2,0,0,0-.053.107s.051-.06.083-.089a.141.141,0,0,1,.094-.027h0a.142.142,0,0,1,.094.027c.032.03.083.089.083.089a.2.2,0,0,0-.052-.107.777.777,0,0,0-.109-.052.342.342,0,0,0,.1-.032c.042-.021.088-.079.158-.112Zm.361-.882a.631.631,0,0,0-.221-.048.371.371,0,0,0-.179.078,1.062,1.062,0,0,1-.112.062.3.3,0,0,1,.038.012.437.437,0,0,0,.088-.056.427.427,0,0,1,.081-.052.332.332,0,0,1,.149-.014.9.9,0,0,1,.278.133.6.6,0,0,0-.126-.117Zm-.472.106" transform="translate(-675.63 -357.185)" fill="#fff"/>
      </g>
    </g>
  </g>
</svg>
