<svg xmlns="http://www.w3.org/2000/svg" width="22.859" height="16.002" viewBox="0 0 22.859 16.002">
  <g id="Group_33016" data-name="Group 33016" transform="translate(18440.93 22297)">
    <g id="Grupo_29602" data-name="Grupo 29602" transform="translate(-18440.93 -22297)">
      <path id="Trazado_31012" data-name="Trazado 31012" d="M633.563,419.081h20.772c.576,0,1.043.327,1.043.73v14.54c0,.4-.467.73-1.043.73H633.563c-.576,0-1.043-.327-1.043-.73v-14.54C632.52,419.408,632.987,419.081,633.563,419.081Z" transform="translate(-632.52 -419.081)" fill="#3cb48f"/>
      <path id="_Path_" data-name=" Path " d="M643.982,435.619l8.724,5.624,8.722-5.624-8.722-5.625Z" transform="translate(-641.362 -427.5)" fill="#f9c539"/>
      <path id="_Path_2" data-name=" Path 2" d="M669.519,438.1a3.773,3.773,0,0,1,0,7.546h0a3.756,3.756,0,0,1-3.744-3.768v-.005a3.755,3.755,0,0,1,3.737-3.773Z" transform="translate(-658.173 -433.75)" fill="#3772ef"/>
      <path id="Trazado_9708" data-name="Trazado 9708" d="M686.906,442.62l.053.156h.162l-.132.1.049.158-.133-.1-.132.1.052-.158-.131-.1h.162Z" transform="translate(-674.31 -437.239)" fill="#fff"/>
      <path id="Trazado_9709" data-name="Trazado 9709" d="M680.627,463.441l.049.147h.15l-.12.091.046.147-.124-.09-.122.09.048-.147-.124-.091h.153Z" transform="translate(-669.48 -453.301)" fill="#fff"/>
      <path id="Trazado_9710" data-name="Trazado 9710" d="M687.94,459.751l.043.133h.139l-.11.083.042.133-.11-.082-.11.082.042-.133-.11-.083h.138Z" transform="translate(-675.137 -450.455)" fill="#fff"/>
      <path id="Trazado_9711" data-name="Trazado 9711" d="M695.326,459.924l.037.11h.12l-.1.07.038.11-.1-.068-.095.069.038-.11-.093-.07h.117Z" transform="translate(-680.855 -450.588)" fill="#fff"/>
      <path id="Trazado_9712" data-name="Trazado 9712" d="M694.04,461.605l.032.094h.1l-.081.057.031.095-.081-.058-.078.058.032-.095-.081-.057h.1Z" transform="translate(-679.879 -451.885)" fill="#fff"/>
      <path id="Trazado_9713" data-name="Trazado 9713" d="M693.025,462.969l.03.091h.1l-.079.057.031.093-.078-.057-.077.057.03-.093-.079-.057h.1Z" transform="translate(-679.097 -452.937)" fill="#fff"/>
      <path id="Trazado_9714" data-name="Trazado 9714" d="M691.812,463.957l.023.07h.075l-.061.044.023.071-.062-.045-.06.045.022-.071-.061-.044h.074Z" transform="translate(-678.182 -453.699)" fill="#fff"/>
      <path id="Trazado_9715" data-name="Trazado 9715" d="M690,463.21l.026.079h.082l-.067.049.027.08-.068-.05-.068.05.025-.08-.067-.049h.084Z" transform="translate(-676.773 -453.123)" fill="#fff"/>
      <path id="Trazado_9716" data-name="Trazado 9716" d="M687.846,463.851l.027.088h.087l-.068.053.027.086-.074-.053-.073.053.026-.086-.072-.053h.09Z" transform="translate(-675.109 -453.618)" fill="#fff"/>
      <path id="Trazado_9717" data-name="Trazado 9717" d="M690.12,466.913l.023.072h.075l-.061.044.023.072-.061-.045-.061.045.022-.072-.06-.044h.075Z" transform="translate(-676.877 -455.98)" fill="#fff"/>
      <path id="Trazado_9718" data-name="Trazado 9718" d="M686.072,465.32l.035.11h.11l-.092.069.035.11-.092-.07-.093.07.034-.11-.092-.068h.11Z" transform="translate(-673.712 -454.751)" fill="#fff"/>
      <path id="Trazado_9719" data-name="Trazado 9719" d="M684.764,463.364l.028.084h.087l-.072.053.026.084-.07-.052-.072.052.026-.084-.069-.053h.089Z" transform="translate(-672.733 -453.242)" fill="#fff"/>
      <path id="Trazado_9720" data-name="Trazado 9720" d="M690.091,465.111l.029.093h.1l-.079.058.031.094-.079-.057-.081.057.031-.094-.081-.058h.1Z" transform="translate(-676.83 -454.589)" fill="#fff"/>
      <path id="Trazado_9721" data-name="Trazado 9721" d="M682.131,467.761l.035.1h.1l-.083.063.031.1-.087-.063-.086.063.031-.1-.083-.063h.11Z" transform="translate(-670.685 -456.634)" fill="#fff"/>
      <path id="Trazado_9722" data-name="Trazado 9722" d="M685.622,453.358l.044.135h.143l-.11.083.041.133-.11-.082-.11.082.044-.133-.11-.083h.139Z" transform="translate(-673.354 -445.523)" fill="#fff"/>
      <path id="Trazado_9723" data-name="Trazado 9723" d="M680.778,456.995l.035.11h.117l-.094.069.035.11-.092-.07-.095.07.037-.11-.095-.069h.119Z" transform="translate(-669.631 -448.329)" fill="#fff"/>
      <path id="Trazado_9724" data-name="Trazado 9724" d="M683.375,459.063l.04.12h.125l-.1.075.037.121-.1-.076-.1.076.04-.121-.11-.075h.128Z" transform="translate(-671.621 -449.924)" fill="#fff"/>
      <path id="Trazado_9725" data-name="Trazado 9725" d="M678.551,459.135l.03.094h.1l-.081.059.031.1-.078-.059-.082.059.032-.1-.081-.059h.1Z" transform="translate(-667.928 -449.979)" fill="#fff"/>
      <path id="Trazado_9726" data-name="Trazado 9726" d="M679.826,461l.019.064h.066l-.053.038.019.063-.051-.039-.054.039.021-.063-.054-.038h.065Z" transform="translate(-668.946 -451.421)" fill="#fff"/>
      <path id="Trazado_9727" data-name="Trazado 9727" d="M668.127,451.215l.034.11h.11l-.09.065.034.11-.091-.066-.091.066.034-.11-.091-.065h.11Z" transform="translate(-659.872 -443.87)" fill="#fff"/>
      <path id="Trazado_9728" data-name="Trazado 9728" d="M675.4,454.962l.027.088h.091l-.074.055.026.088-.07-.054-.076.054.03-.088-.075-.055h.091Z" transform="translate(-665.505 -446.76)" fill="#fff"/>
      <path id="Trazado_9729" data-name="Trazado 9729" d="M669.641,457.42l.039.12h.125l-.1.077.041.12-.1-.075-.1.075.038-.12-.1-.077h.125Z" transform="translate(-661.028 -448.656)" fill="#fff"/>
      <path id="Trazado_9730" data-name="Trazado 9730" d="M671.745,456.653l.02.061h.062l-.051.036.02.061-.051-.036-.048.036.019-.061-.051-.036h.064Z" transform="translate(-662.717 -448.065)" fill="#fff"/>
      <path id="Trazado_9731" data-name="Trazado 9731" d="M673.656,459.423l.032.1h.11l-.086.063.033.1-.086-.064-.088.064.032-.1-.086-.063h.11Z" transform="translate(-664.145 -450.202)" fill="#fff"/>
      <path id="Trazado_9732" data-name="Trazado 9732" d="M675.776,462.882l.039.12h.125l-.1.075.039.119-.1-.074-.1.074.039-.119-.1-.075h.125Z" transform="translate(-665.764 -452.87)" fill="#fff"/>
      <path id="Trazado_9733" data-name="Trazado 9733" d="M673.049,461.3l.034.1h.11l-.087.065.033.1-.087-.061-.086.061.033-.1-.087-.065h.11Z" transform="translate(-663.678 -451.65)" fill="#fff"/>
      <path id="Trazado_9734" data-name="Trazado 9734" d="M667.738,459.919l.023.069h.073l-.06.044.023.069-.06-.043-.06.043.023-.069-.061-.044h.074Z" transform="translate(-659.612 -450.584)" fill="#fff"/>
      <path id="Trazado_30841" data-name="Trazado 30841" d="M673.625,449.522a8.96,8.96,0,0,0-7.148-1.873,3.3,3.3,0,0,0-.194.583,8.39,8.39,0,0,1,1.386-.166,8.478,8.478,0,0,1,5.846,2.06A3.527,3.527,0,0,0,673.625,449.522Z" transform="translate(-658.566 -441.021)" fill="#fff"/>
    </g>
  </g>
</svg>
